# xmcd
#
# Track frame offsets:
#	150
#	13515
#	29092
#	40895
#	56800
#	73277
#	86380
#	101645
#	115812
#	130492
#	144252
#	157875
#	172022
#	188482
#
# Disc length: 2760 seconds
#
# Revision: 0
# Processed by: cddbd v1.5.1PL0 Copyright (c) Steve Scherf et al.
# Submitted via: EasyCDDAExtractor 7.5.2.1
#
DISCID=bf0ac60e
DTITLE=Maatao and Monteyro - Cancao De Amor 
DYEAR=1900
DGENRE=Country
TTITLE0=Foi
TTITLE1=Cancao De Amor
TTITLE2=Amor Proibido
TTITLE3=Saudade Dela
TTITLE4=Como Vai Voce
TTITLE5=Ai Que O Trem E Bom
TTITLE6=Vendaval De Saudade
TTITLE7=Vem Me Da Voce
TTITLE8=Sem Voce Nao Tem Amor
TTITLE9=Paixao Bandida
TTITLE10=Doente De Saudade
TTITLE11=Quem Casa Nao Pensa
TTITLE12=Fogo No Paiol
TTITLE13=A Mao Do Produtor
EXTD=
EXTT0=
EXTT1=
EXTT2=
EXTT3=
EXTT4=
EXTT5=
EXTT6=
EXTT7=
EXTT8=
EXTT9=
EXTT10=
EXTT11=
EXTT12=
EXTT13=
PLAYORDER=
